<svg xmlns="http://www.w3.org/2000/svg" xmlns:xlink="http://www.w3.org/1999/xlink" width="0" height="0" style="position:absolute">
	
		<symbol id="bin" viewBox="0 0 16 16">
			<path d="M2 5v10c0 .55.45 1 1 1h9c.55 0 1-.45 1-1V5H2zm3 9H4V7h1v7zm2 0H6V7h1v7zm2 0H8V7h1v7zm2 0h-1V7h1v7zM13.25 2H10V.75A.753.753 0 0 0 9.25 0h-3.5A.753.753 0 0 0 5 .75V2H1.75a.752.752 0 0 0-.75.75V4h13V2.75a.752.752 0 0 0-.75-.75zM9 2H6v-.987h3V2z"></path>
		</symbol>
	
		<symbol id="bullet" viewBox="0 0 16 16">
			<path d="M8 0a8 8 0 1 0 0 16A8 8 0 0 0 8 0zm0 14A6 6 0 1 1 8 2a6 6 0 0 1 0 12zM5 8a3 3 0 1 1 6 0 3 3 0 0 1-6 0z"></path>
		</symbol>
	
		<symbol id="cancel-circle" viewBox="0 0 16 16">
			<path d="M8 0a8 8 0 1 0 0 16A8 8 0 0 0 8 0zm0 14.5a6.5 6.5 0 1 1 0-13 6.5 6.5 0 0 1 0 13z"></path><path d="M10.5 4L8 6.5 5.5 4 4 5.5 6.5 8 4 10.5 5.5 12 8 9.5l2.5 2.5 1.5-1.5L9.5 8 12 5.5z"></path>
		</symbol>
	
		<symbol id="checkmark" viewBox="0 0 16 16">
			<path d="M13.5 2L6 9.5 2.5 6 0 8.5l6 6 10-10z"></path>
		</symbol>
	
		<symbol id="checkmark2" viewBox="0 0 16 16">
			<path d="M6.21 14.339L-.007 8.22l3.084-3.035L6.21 8.268l6.713-6.607 3.084 3.035-9.797 9.643zM1.686 8.22l4.524 4.453 8.104-7.976-1.391-1.369L6.21 9.935 3.077 6.852 1.686 8.221z"></path>
		</symbol>
	
		<symbol id="chevron-down" viewBox="0 0 10 16">
			<title>chevron-down</title><path d="M8 5L5 8 2 5 0 7l5 5 5-5-2-2z"></path>
		</symbol>
	
		<symbol id="chevron-left" viewBox="0 0 7 16">
			<title>chevron-left</title><path d="M7 5L5 3 0 8l5 5 2-2-3-3 3-3z"></path>
		</symbol>
	
		<symbol id="chevron-right" viewBox="0 0 7 16">
			<title>chevron-right</title><path d="M2 3L0 5l3 3-3 3 2 2 5-5-5-5z"></path>
		</symbol>
	
		<symbol id="chevron-up" viewBox="0 0 10 16">
			<title>chevron-up</title><path d="M5 4L0 9l2 2 3-3 3 3 2-2-5-5z"></path>
		</symbol>
	
		<symbol id="circle-down" viewBox="0 0 16 16">
			<title>circle-down</title><path fill="#444" d="M16 8A8 8 0 1 0 0 8a8 8 0 0 0 16 0zM1.5 8a6.5 6.5 0 1 1 13 0 6.5 6.5 0 0 1-13 0z"></path><path fill="#444" d="M4.957 5.543L3.543 6.957 8 11.414l4.457-4.457-1.414-1.414L8 8.586z"></path>
		</symbol>
	
		<symbol id="circle-left" viewBox="0 0 16 16">
			<title>circle-left</title><path fill="#444" d="M8 16A8 8 0 1 0 8 0a8 8 0 0 0 0 16zM8 1.5a6.5 6.5 0 1 1 0 13 6.5 6.5 0 0 1 0-13z"></path><path fill="#444" d="M10.457 4.957L9.043 3.543 4.586 8l4.457 4.457 1.414-1.414L7.414 8z"></path>
		</symbol>
	
		<symbol id="circle-right" viewBox="0 0 16 16">
			<title>circle-right</title><path fill="#444" d="M8 0a8 8 0 1 0 0 16A8 8 0 0 0 8 0zm0 14.5a6.5 6.5 0 1 1 0-13 6.5 6.5 0 0 1 0 13z"></path><path fill="#444" d="M5.543 11.043l1.414 1.414L11.414 8 6.957 3.543 5.543 4.957 8.586 8z"></path>
		</symbol>
	
		<symbol id="circle-up" viewBox="0 0 16 16">
			<title>circle-up</title><path fill="#444" d="M0 8a8 8 0 1 0 16 0A8 8 0 0 0 0 8zm14.5 0a6.5 6.5 0 1 1-13 0 6.5 6.5 0 0 1 13 0z"></path><path fill="#444" d="M11.043 10.457l1.414-1.414L8 4.586 3.543 9.043l1.414 1.414L8 7.414z"></path>
		</symbol>
	
		<symbol id="cross" viewBox="0 0 16 16">
			<path d="M15.854 12.854L11 8l4.854-4.854a.503.503 0 0 0 0-.707L13.561.146a.499.499 0 0 0-.707 0L8 5 3.146.146a.5.5 0 0 0-.707 0L.146 2.439a.499.499 0 0 0 0 .707L5 8 .146 12.854a.5.5 0 0 0 0 .707l2.293 2.293a.499.499 0 0 0 .707 0L8 11l4.854 4.854a.5.5 0 0 0 .707 0l2.293-2.293a.499.499 0 0 0 0-.707z"></path>
		</symbol>
	
		<symbol id="facebook" viewBox="0 0 16 16">
			<path d="M10.5 3A2.5 2.5 0 0 0 8 5.5V7H6v2h2v7h2V9h2.25l.5-2H10V5.5a.5.5 0 0 1 .5-.5H13V3h-2.5z"></path>
		</symbol>
	
		<symbol id="gear" viewBox="0 0 16 16">
			<title>gear</title><path d="M8.034 5.085a2.88 2.88 0 0 0 0 5.76c1.59 0 2.87-1.292 2.87-2.88 0-1.591-1.28-2.88-2.87-2.88zm5.772 4.534l-.518 1.25 1.047 2.058-1.283 1.284-2.106-.995-1.25.514-.635 1.942-.081.258H7.166l-.785-2.192-1.25-.516-2.06 1.043-1.283-1.282.993-2.107-.515-1.25L.07 8.91V7.097l2.194-.786.515-1.248-.923-1.821-.121-.24 1.28-1.28 2.109.993 1.248-.517.634-1.94L7.088 0H8.9l.785 2.195 1.247.516 2.063-1.045 1.283 1.28-.994 2.106.513 1.25 2.2.716V8.83l-2.193.789h.001z" mask="url(#mask-2)"></path>
		</symbol>
	
		<symbol id="github" viewBox="0 0 1024 1024">
			<path d="M512 0C229.25 0 0 229.25 0 512c0 226.25 146.688 418.125 350.156 485.812 25.594 4.688 34.938-11.125 34.938-24.625 0-12.188-.469-52.562-.719-95.312C242 908.812 211.906 817.5 211.906 817.5c-23.312-59.125-56.844-74.875-56.844-74.875-46.531-31.75 3.53-31.125 3.53-31.125 51.406 3.562 78.47 52.75 78.47 52.75 45.688 78.25 119.875 55.625 149 42.5 4.654-33 17.904-55.625 32.5-68.375-113.656-12.937-233.218-56.875-233.218-253.063 0-55.938 19.969-101.562 52.656-137.406-5.219-13-22.844-65.094 5.062-135.562 0 0 42.938-13.75 140.812 52.5 40.812-11.406 84.594-17.031 128.125-17.219 43.5.188 87.312 5.875 128.188 17.281 97.688-66.312 140.688-52.5 140.688-52.5 28 70.531 10.375 122.562 5.125 135.5 32.812 35.844 52.625 81.469 52.625 137.406 0 196.688-119.75 240-233.812 252.688 18.438 15.875 34.75 47 34.75 94.75 0 68.438-.688 123.625-.688 140.5 0 13.625 9.312 29.562 35.25 24.562C877.438 930 1024 738.125 1024 512 1024 229.25 794.75 0 512 0z"></path>
		</symbol>
	
		<symbol id="google" viewBox="0 0 32 32">
			<title>google-plus</title><path d="M10.181 14.294v3.494h5.775c-.231 1.5-1.744 4.394-5.775 4.394-3.475 0-6.313-2.881-6.313-6.431S6.706 9.32 10.181 9.32c1.981 0 3.3.844 4.056 1.569l2.762-2.662c-1.775-1.656-4.075-2.662-6.819-2.662C4.549 5.571-.001 10.121-.001 15.753s4.55 10.181 10.181 10.181c5.875 0 9.775-4.131 9.775-9.95a9.27 9.27 0 0 0-.163-1.688h-9.613zM32 14h-3v-3h-3v3h-3v3h3v3h3v-3h3z"></path>
		</symbol>
	
		<symbol id="instagram" viewBox="0 0 800 800">
			<defs><path id="a" d="M0 0h800v800H0z"></path></defs><clipPath id="b"><use xlink:href="#a" overflow="visible"></use></clipPath><path clip-path="url(#b)" d="M400.003 72.068c106.804 0 119.451.408 161.633 2.332 38.997 1.781 60.178 8.298 74.274 13.774 18.673 7.257 31.996 15.926 45.993 29.923 13.999 13.997 22.669 27.317 29.923 45.99 5.477 14.097 11.993 35.277 13.771 74.275 1.924 42.181 2.332 54.829 2.332 161.636s-.408 119.457-2.332 161.636c-1.778 39-8.295 60.181-13.771 74.274-7.254 18.669-15.924 31.993-29.923 45.993-13.997 13.996-27.32 22.666-45.993 29.923-14.097 5.476-35.277 11.993-74.274 13.771-42.175 1.927-54.82 2.331-161.633 2.331-106.815 0-119.46-.404-161.636-2.331-38.997-1.778-60.178-8.296-74.275-13.771-18.669-7.257-31.996-15.927-45.993-29.923-13.996-14-22.663-27.324-29.92-45.993-5.476-14.094-11.996-35.274-13.774-74.274-1.924-42.179-2.332-54.829-2.332-161.636s.408-119.455 2.332-161.636c1.778-38.998 8.298-60.178 13.774-74.275 7.257-18.672 15.924-31.993 29.92-45.99 13.997-13.997 27.324-22.666 45.993-29.923 14.097-5.476 35.278-11.994 74.275-13.774 42.182-1.924 54.829-2.332 161.636-2.332m0-72.071c-108.636 0-122.258.459-164.92 2.408-42.577 1.942-71.654 8.706-97.096 18.593C111.683 31.22 89.376 44.896 67.14 67.133 44.903 89.37 31.223 111.68 21.004 137.98c-9.893 25.449-16.654 54.522-18.596 97.1C.46 277.746.003 291.365.003 399.997c0 108.636.457 122.255 2.405 164.917 1.942 42.58 8.703 71.654 18.596 97.1 10.219 26.303 23.899 48.61 46.136 70.85 22.236 22.237 44.543 35.914 70.847 46.136 25.442 9.887 54.519 16.647 97.096 18.593 42.663 1.945 56.285 2.408 164.92 2.408 108.633 0 122.255-.463 164.917-2.408 42.578-1.945 71.654-8.706 97.097-18.593 26.304-10.222 48.61-23.898 70.851-46.136 22.236-22.239 35.913-44.547 46.135-70.85 9.891-25.445 16.651-54.52 18.594-97.1 1.947-42.662 2.404-56.281 2.404-164.917 0-108.633-.457-122.252-2.404-164.917-1.942-42.577-8.703-71.651-18.594-97.099-10.222-26.3-23.898-48.61-46.135-70.847-22.24-22.237-44.547-35.914-70.851-46.135-25.442-9.887-54.519-16.651-97.097-18.593C522.258.457 508.636-.003 400.003-.003"></path><path clip-path="url(#b)" d="M400.003 194.594c-113.442 0-205.406 91.961-205.406 205.403S286.561 605.4 400.003 605.4c113.439 0 205.403-91.961 205.403-205.403s-91.964-205.403-205.403-205.403m0 338.735c-73.639 0-133.335-59.693-133.335-133.332s59.696-133.333 133.335-133.333 133.332 59.694 133.332 133.333-59.693 133.332-133.332 133.332M661.523 186.479c0 26.507-21.488 47.998-48.002 47.998-26.508 0-47.998-21.491-47.998-47.998 0-26.514 21.49-48.002 47.998-48.002 26.514 0 48.002 21.488 48.002 48.002"></path>
		</symbol>
	
		<symbol id="link" viewBox="0 0 16 16">
			<path d="M6.879 9.934a.81.81 0 0 1-.575-.238 3.818 3.818 0 0 1 0-5.392l3-3C10.024.584 10.982.187 12 .187s1.976.397 2.696 1.117a3.818 3.818 0 0 1 0 5.392l-1.371 1.371a.813.813 0 0 1-1.149-1.149l1.371-1.371A2.19 2.19 0 0 0 12 1.812c-.584 0-1.134.228-1.547.641l-3 3a2.19 2.19 0 0 0 0 3.094.813.813 0 0 1-.575 1.387z"></path><path d="M4 15.813a3.789 3.789 0 0 1-2.696-1.117 3.818 3.818 0 0 1 0-5.392l1.371-1.371a.813.813 0 0 1 1.149 1.149l-1.371 1.371A2.19 2.19 0 0 0 4 14.188c.585 0 1.134-.228 1.547-.641l3-3a2.19 2.19 0 0 0 0-3.094.813.813 0 0 1 1.149-1.149 3.818 3.818 0 0 1 0 5.392l-3 3A3.789 3.789 0 0 1 4 15.813z"></path>
		</symbol>
	
		<symbol id="linkedin" viewBox="0 0 16 16">
			<path d="M6 6h2.767v1.418h.04C9.192 6.727 10.134 6 11.539 6 14.46 6 15 7.818 15 10.183V15h-2.885v-4.27c0-1.018-.021-2.329-1.5-2.329-1.502 0-1.732 1.109-1.732 2.255V15H6V6zM1 6h3v9H1V6zM4 3.5a1.5 1.5 0 1 1-3.001-.001A1.5 1.5 0 0 1 4 3.5z"></path>
		</symbol>
	
		<symbol id="list-countdown" viewBox="-6 8 16 16">
			<style>.st0{fill:#444}</style><path class="st0" d="M0 21h10v2H0v-2zm0-6h10v2H0v-2zm0-6h10v2H0V9zm-3 11v4h-1v-3h-1v-1h2zm-1-2.8v.8h2v1h-3v-2.3l2-.9V15h-2v-1h3v2.3l-2 .9zM-2 8v5h-3v-1h2v-1h-2v-1h2V9h-2V8h3z"></path>
		</symbol>
	
		<symbol id="list-numbered" viewBox="0 0 16 16">
			<path d="M6 13h10v2H6zm0-6h10v2H6zm0-6h10v2H6zM3 0v4H2V1H1V0zM2 8.219V9h2v1H1V7.719l2-.938V6H1V5h3v2.281zM4 11v5H1v-1h2v-1H1v-1h2v-1H1v-1z"></path>
		</symbol>
	
		<symbol id="list2" viewBox="0 0 16 16">
			<path d="M6 1h10v2H6V1zm0 6h10v2H6V7zm0 6h10v2H6v-2zM0 2a2 2 0 1 1 3.999-.001A2 2 0 0 1 0 2zm0 6a2 2 0 1 1 3.999-.001A2 2 0 0 1 0 8zm0 6a2 2 0 1 1 3.999-.001A2 2 0 0 1 0 14z"></path>
		</symbol>
	
		<symbol id="medium" viewBox="0 0 106 90">
			<title>Follow Brian Forde on Medium</title><desc>Medium logo</desc><g fill="none" fill-rule="evenodd"><path d="M73.286 1.07c-1.594-.797-2.898.009-2.898 1.791V73.75l29.089 14.545c3.201 1.6 5.796.48 5.796-2.502V17.529a.757.757 0 0 0-.417-.675L73.286 1.07" fill="#CCCDC9"></path><path d="M35.504 56.308L68.69 2.38c.934-1.518 3.002-2.107 4.596-1.31l31.606 15.802a.39.39 0 0 1 .158.554L70.388 73.75 35.504 56.308" fill="#9EA1A0"></path><path d="M5.449 2.036c-2.657-1.329-3.557-.346-2 2.184l32.055 52.088L70.388 73.75 35.579 17.185a.501.501 0 0 0-.204-.186L5.449 2.036" fill="#797B79"></path><path d="M35.504 85.793c0 2.97-2.174 4.313-4.83 2.985L3.517 75.199C1.923 74.402.619 72.292.619 70.51V3.941c0-2.376 1.739-3.451 3.864-2.388l30.833 15.416a.34.34 0 0 1 .188.303v68.521" fill="#515251"></path></g>
		</symbol>
	
		<symbol id="minus" viewBox="0 0 16 16">
			<path d="M0 6.5v3a.5.5 0 0 0 .5.5h15a.5.5 0 0 0 .5-.5v-3a.5.5 0 0 0-.5-.5H.5a.5.5 0 0 0-.5.5z"></path>
		</symbol>
	
		<symbol id="play" viewBox="0 0 512 512">
			<path d="M128 96v320l256-160L128 96z"></path>
		</symbol>
	
		<symbol id="plus" viewBox="0 0 16 16">
			<path d="M15.5 6H10V.5a.5.5 0 0 0-.5-.5h-3a.5.5 0 0 0-.5.5V6H.5a.5.5 0 0 0-.5.5v3a.5.5 0 0 0 .5.5H6v5.5a.5.5 0 0 0 .5.5h3a.5.5 0 0 0 .5-.5V10h5.5a.5.5 0 0 0 .5-.5v-3a.5.5 0 0 0-.5-.5z"></path>
		</symbol>
	
		<symbol id="radio-checked" viewBox="0 0 16 16">
			<path d="M8 0a8 8 0 1 0 0 16A8 8 0 0 0 8 0zm0 14A6 6 0 1 1 8 2a6 6 0 0 1 0 12zM5 8a3 3 0 1 1 6 0 3 3 0 0 1-6 0z"></path>
		</symbol>
	
		<symbol id="radio-checked2" viewBox="0 0 16 16">
			<path d="M8 0a8 8 0 1 0 0 16A8 8 0 0 0 8 0zm0 10a2 2 0 1 1-.001-3.999A2 2 0 0 1 8 10z"></path>
		</symbol>
	
		<symbol id="radio-unchecked" viewBox="0 0 16 16">
			<path d="M8 0a8 8 0 1 0 0 16A8 8 0 0 0 8 0zm0 14A6 6 0 1 1 8 2a6 6 0 0 1 0 12z"></path>
		</symbol>
	
		<symbol id="search" viewBox="0 0 15 16">
			<path d="M15 13l-3.893-3.893A5.921 5.921 0 0 0 12 6c0-3.313-2.688-6-6-6S0 2.687 0 6a6 6 0 0 0 6 6c1.143 0 2.2-.337 3.107-.891L13 15a.715.715 0 0 0 1 0l1-1a.713.713 0 0 0 0-1zm-9-3a4 4 0 1 1 0-8 4 4 0 0 1 0 8z"></path>
		</symbol>
	
		<symbol id="triangle-down" viewBox="0 0 12 16">
			<title>triangle-down</title><path fill="#444" d="M0 6l5.996 5.996L11.992 6H0z"></path>
		</symbol>
	
		<symbol id="triangle-left" viewBox="0 0 6 16">
			<title>triangle-left</title><path fill="#444" d="M0 7.998l5.996 5.996V2.002L0 7.998z"></path>
		</symbol>
	
		<symbol id="triangle-right" viewBox="0 0 6 16">
			<title>triangle-right</title><path fill="#444" d="M.001 2.004L5.997 8 .001 13.996V2.004z"></path>
		</symbol>
	
		<symbol id="triangle-up" viewBox="0 0 12 16">
			<title>triangle-up</title><path fill="#444" d="M5.996 4L0 9.996h11.992L5.996 4z"></path>
		</symbol>
	
		<symbol id="twitter" viewBox="0 0 16 16">
			<path d="M16 3.038a6.555 6.555 0 0 1-1.885.517 3.291 3.291 0 0 0 1.443-1.816 6.594 6.594 0 0 1-2.085.797 3.283 3.283 0 0 0-5.594 2.993 9.32 9.32 0 0 1-6.766-3.43 3.263 3.263 0 0 0-.444 1.65c0 1.139.579 2.144 1.46 2.732A3.27 3.27 0 0 1 .642 6.07v.041A3.286 3.286 0 0 0 3.275 9.33a3.283 3.283 0 0 1-1.483.056 3.287 3.287 0 0 0 3.066 2.28 6.588 6.588 0 0 1-4.86 1.359A9.295 9.295 0 0 0 5.03 14.5c6.038 0 9.34-5.002 9.34-9.34a8.58 8.58 0 0 0-.01-.425 6.665 6.665 0 0 0 1.638-1.699z"></path>
		</symbol>
	
</svg>
